<?xml version="1.0" encoding="UTF-8"?>
<!DOCTYPE svg PUBLIC "-//W3C//DTD SVG 1.1//EN" "http://www.w3.org/Graphics/SVG/1.1/DTD/svg11.dtd">
<!-- Creator: CorelDRAW 2021 (64 Bit) -->
<svg xmlns="http://www.w3.org/2000/svg" xml:space="preserve" width="297mm" height="210mm" version="1.1" style="shape-rendering:geometricPrecision; text-rendering:geometricPrecision; image-rendering:optimizeQuality; fill-rule:evenodd; clip-rule:evenodd"
viewBox="0 0 29700 21000"
 xmlns:xlink="http://www.w3.org/1999/xlink"
 xmlns:xodm="http://www.corel.com/coreldraw/odm/2003">
 <defs>
  <style type="text/css">
   <![CDATA[
    .str0 {stroke:#373435;stroke-width:20;stroke-miterlimit:22.9256}
    .fil0 {fill:#373435}
   ]]>
  </style>
 </defs>
 <g id="Camada_x0020_1">
  <metadata id="CorelCorpID_0Corel-Layer"/>
  <path class="fil0 str0" d="M8979.53 5053.94l-204.26 -204.27 0 138.62c0,16.65 -13.62,30.27 -30.27,30.27 -16.64,0 -30.26,-13.62 -30.26,-30.27l0 -192.47c0,-9.61 4.55,-18.22 11.6,-23.77 0.63,-0.83 1.32,-1.63 2.08,-2.39 0.62,-0.62 1.27,-1.2 1.95,-1.74 5.56,-6.77 13.99,-11.1 23.37,-11.1l192.48 0c16.64,0 30.26,13.62 30.26,30.26 0,16.65 -13.62,30.27 -30.26,30.27l-136.95 0 203.43 203.42c9.12,9.12 9.12,24.05 0,33.17 -9.12,9.12 -24.05,9.12 -33.17,0z"/>
  <path class="fil0 str0" d="M9083.81 5091.88l204.26 204.27 0 -138.62c0,-16.65 13.62,-30.27 30.27,-30.27 16.64,0 30.26,13.62 30.26,30.27l0 192.47c0,9.61 -4.55,18.22 -11.6,23.77 -0.63,0.83 -1.32,1.63 -2.08,2.39 -0.62,0.62 -1.27,1.2 -1.95,1.74 -5.56,6.77 -13.99,11.1 -23.37,11.1l-192.48 0c-16.64,0 -30.26,-13.62 -30.26,-30.26 0,-16.65 13.62,-30.27 30.26,-30.27l136.95 0 -203.43 -203.42c-9.12,-9.12 -9.12,-24.05 0,-33.17 9.12,-9.12 24.05,-9.12 33.17,0z"/>
 </g>
</svg>
