<?xml version="1.0" encoding="UTF-8"?>
<!DOCTYPE svg PUBLIC "-//W3C//DTD SVG 1.1//EN" "http://www.w3.org/Graphics/SVG/1.1/DTD/svg11.dtd">
<!-- Creator: CorelDRAW 2021 (64 Bit) -->
<svg xmlns="http://www.w3.org/2000/svg" xml:space="preserve" width="3.0478mm" height="3.0478mm" version="1.1" style="shape-rendering:geometricPrecision; text-rendering:geometricPrecision; image-rendering:optimizeQuality; fill-rule:evenodd; clip-rule:evenodd"
viewBox="0 0 304.78 304.78"
 xmlns:xlink="http://www.w3.org/1999/xlink"
 xmlns:xodm="http://www.corel.com/coreldraw/odm/2003">
 <defs>
  <style type="text/css">
   <![CDATA[
    .str0 {stroke:#373435;stroke-width:20;stroke-miterlimit:22.9256}
    .fil0 {fill:none}
    .fil1 {fill:#373435;fill-rule:nonzero}
   ]]>
  </style>
 </defs>
 <g id="Camada_x0020_1">
  <metadata id="CorelCorpID_0Corel-Layer"/>
  <g id="_2309986601568">
   <path class="fil0 str0" d="M107.09 76.61l-47.91 36.53m187.76 -0.7l-45.95 -35.83m45.95 80.94l0 91.43c0,8.46 -6.93,15.39 -15.39,15.39l-156.98 0c-8.47,0 -15.39,-6.93 -15.39,-15.39l0 -91.43 -18.76 0c-11.49,0 -40.39,0.69 -22.09,-13.27l40.86 -31.15 47.9 -36.52 47.47 -36.2 133.22 103.87c14.81,11.55 -9.94,13.27 -22.08,13.27l-18.76 0z"/>
   <path class="fil1" d="M148.83 243.29l0 -8.47c-6.64,-0.84 -12.04,-2.32 -16.2,-4.47 -4.17,-2.15 -7.75,-5.63 -10.78,-10.4 -3.03,-4.79 -4.77,-10.62 -5.27,-17.54l13.32 -2.57c1.04,7.19 2.85,12.46 5.48,15.82 3.73,4.75 8.23,7.4 13.45,7.95l0 -41.82c-5.48,-1.41 -11.05,-3.73 -16.76,-6.94 -4.24,-2.34 -7.49,-5.63 -9.79,-9.81 -2.3,-4.22 -3.43,-8.96 -3.43,-14.29 0,-9.46 3.35,-17.14 10.04,-23.02 4.47,-3.93 11.13,-6.36 19.94,-7.24l0 -6.36c0,-2.62 7.87,-2.62 7.87,0l0 6.36c7.7,0.73 13.81,3.03 18.33,6.84 5.78,4.85 9.26,11.51 10.44,19.96l-13.62 2.12c-0.79,-5.27 -2.43,-9.33 -4.93,-12.14 -2.47,-2.82 -5.88,-4.67 -10.22,-5.57l0 38.36c6.69,1.71 11.11,3.05 13.28,3.98 4.14,1.82 7.49,4.04 10.09,6.67 2.63,2.6 4.62,5.7 6.04,9.31 1.38,3.58 2.09,7.5 2.09,11.68 0,9.22 -2.93,16.89 -8.78,23.07 -5.86,6.16 -13.43,9.44 -22.72,9.9 0,4.49 0,4.12 0,8.62 0,2.13 -7.87,2.62 -7.87,0zm0 -111.75c-5.15,0.79 -9.24,2.86 -12.19,6.24 -2.98,3.36 -4.47,7.32 -4.47,11.91 0,4.54 1.26,8.35 3.79,11.41 2.52,3.05 6.81,5.37 12.87,6.94l0 -36.5zm7.87 92.07c5.18,-0.63 9.44,-2.88 12.82,-6.74 3.36,-3.83 5.05,-8.6 5.05,-14.26 0,-4.84 -1.18,-8.7 -3.58,-11.66 -2.4,-2.92 -7.17,-5.3 -14.29,-7.14l0 39.8z"/>
  </g>
 </g>
</svg>
